<svg xmlns="http://www.w3.org/2000/svg" viewBox="0 0 512 512" role="img" aria-label="Mira Thai Massage">
  <rect width="512" height="512" rx="96" fill="#1a3d2b"/>
  <path fill="#c9a227" d="M256 88c-18 0-32 14-32 32v24h-40c-22 0-40 18-40 40v8c0 22 18 40 40 40h16v88c0 44 36 80 80 80s80-36 80-80v-88h16c22 0 40-18 40-40v-8c0-22-18-40-40-40h-40v-24c0-18-14-32-32-32zm0 48c8.8 0 16 7.2 16 16v32h-32v-32c0-8.8 7.2-16 16-16z"/>
  <text x="256" y="400" text-anchor="middle" font-family="Georgia, 'Times New Roman', serif" font-size="72" font-weight="700" fill="#c9a227">MIRA</text>
</svg>
